<svg id="Ebene_1" data-name="Ebene 1" xmlns="http://www.w3.org/2000/svg" viewBox="0 0 380.73 120.33"><title>Zeichenfläche 1</title><path d="M126.23,26.92h11v-8h-11V7.08h-9V18.89l-7.36,0v8.07h7.36V47.54c0,9.34,2.52,15.69,12.56,15.69a27.48,27.48,0,0,0,8.82-1.59l-1.76-7.49a12.43,12.43,0,0,1-4.5,1c-4.14,0-6.08-2.47-6.08-7.58V26.92Z" style="fill:#fff"/><polygon points="246.41 19.24 289.22 19.24 289.22 62.06 246.41 62.06 246.41 19.24 246.41 19.24" style="fill:#005167"/><polygon points="325.77 28.45 359.39 28.45 359.39 62.06 325.77 62.06 325.77 28.45 325.77 28.45" style="fill:#fff"/><polygon points="295.28 37.63 319.72 37.63 319.72 62.06 295.28 62.06 295.28 37.63 295.28 37.63" style="fill:#fff"/><polygon points="365.44 46.78 380.73 46.78 380.73 62.06 365.44 62.06 365.44 46.78 365.44 46.78" style="fill:#fff"/><polygon points="246.28 19.09 289.26 19.09 289.26 62.06 246.28 62.06 246.28 19.09 246.28 19.09" style="fill:#005167"/><path d="M16.68,62.23H26.82V32c3.61-3.52,6.08-5.37,9.87-5.37,4.76,0,6.78,2.64,6.78,9.78V62.23H53.61V35.08c0-10.93-4.06-17.19-13.31-17.19-5.91,0-10.22,3.09-13.84,6.53L26.82,16V0H16.68V62.23ZM63,40.63C63,55,72.83,63.29,83.58,63.29S104.2,55,104.2,40.63,94.42,17.89,83.58,17.89,63,26.18,63,40.63Zm10.4,0c0-8.72,3.79-14.45,10.14-14.45S93.8,31.91,93.8,40.63,89.92,55,83.58,55,73.44,49.27,73.44,40.63ZM138.31,61.7m4.06-21.07c0,14.28,9.34,22.66,21.33,22.66a27.29,27.29,0,0,0,14.81-4.68l-3.44-6.34a18.08,18.08,0,0,1-10,3.17c-7,0-11.9-4.41-12.78-12.25h27.5a22.08,22.08,0,0,0,.44-4.76c0-12.08-6.17-20.54-17.89-20.54-10.14,0-19.92,8.64-19.92,22.74Zm9.78-3.87c.88-7.23,5.29-11,10.4-11,5.91,0,8.82,4.14,8.82,11ZM191,51.12c0,7.49,1.51,12.17,8.74,12.17a13.74,13.74,0,0,0,5.37-.89l-1.32-7.58a6,6,0,0,1-1.59.18c-1.05,0-2.2-.88-2.2-3.35V0h-9V51.12Z" style="fill:#fff"/><path d="M15.49,120.33H27.71L43.16,74.24H33L25.87,95.89q-1.82,5.58-4.29,15.87l-.38-1.65q-2.41-9.4-4-14.22L10.16,74.24H0l15.49,46.09Zm35.91,0h9.93V74.24H51.4v46.09Zm33.59,0H97.21l15.46-46.09H102.54L95.37,95.89q-1.82,5.58-4.29,15.87l-.38-1.65q-2.4-9.4-4-14.22L79.66,74.24H69.5L85,120.33Zm45.85-38.76h20.09V74.24h-30v46.09h30.69V113H130.84V100.17H149V93H130.84V81.57Zm61.26,38.76H200V74.24H191V106q-4.76-7.9-7.42-11.68l-14-20h-7.87v46.09h9V88.4q4.86,8.28,7.14,11.52l14.28,20.41Zm36.45-46.09H213.1v46.09h15.45q11.77,0,17.86-5.92t6.07-17.35q0-11.32-6-17.07t-17.92-5.75Zm.67,38.69H222.9V81.7h6.32q6.51,0,9.78,3.9c2.17,2.61,3.27,6.47,3.27,11.59S241.16,106.32,239,109s-5.44,4-9.74,4Zm33.5,7.4h9.93V74.24h-9.93v46.09Z" style="fill:#005167"/><path d="M279.68,80.6a3.4,3.4,0,1,0-3.28-3.39,3.27,3.27,0,0,0,3.28,3.39Zm0-.74a2.67,2.67,0,1,1,2.49-2.65,2.47,2.47,0,0,1-2.49,2.65Zm-1.3-1h.84v-1.1h.58l.56,1.1h.91l-.75-1.34a1,1,0,0,0,.63-.94c0-.8-.62-1.1-1.36-1.1h-1.41v3.38Zm.84-1.72v-1h.41c.43,0,.62.22.62.51s-.24.51-.63.51Z" style="fill:#005167"/></svg>